<svg width="93" height="93" viewBox="0 0 93 93" fill="none" xmlns="http://www.w3.org/2000/svg">
<path fill-rule="evenodd" clip-rule="evenodd" d="M92.04 46.02C92.04 58.67 86.86 70.18 78.52 78.52C70.18 86.86 58.67 92.04 46.02 92.04C33.37 92.04 21.86 86.86 13.52 78.52C5.18 70.18 0 58.67 0 46.02C0 33.37 5.18 21.86 13.52 13.52C21.86 5.18 33.37 0 46.02 0C56.77 0 66.7 3.74 74.56 9.98C75.46 10.7 75.96 11.66 76.03 12.81C76.1 13.96 75.71 14.97 74.89 15.79L74.7 15.98C73.29 17.39 71.08 17.51 69.52 16.28C63.05 11.15 54.87 8.07 46.02 8.07C35.58 8.07 26.09 12.34 19.22 19.22C12.35 26.1 8.07 35.59 8.07 46.02C8.07 56.45 12.34 65.95 19.22 72.82C26.1 79.7 35.59 83.97 46.02 83.97C56.45 83.97 65.95 79.7 72.82 72.82C79.7 65.94 83.97 56.45 83.97 46.02C83.97 42.1 83.37 38.32 82.26 34.76C81.82 33.34 82.17 31.89 83.22 30.84L83.44 30.62C84.43 29.63 85.76 29.26 87.12 29.59C88.48 29.92 89.49 30.86 89.91 32.2C91.29 36.56 92.04 41.21 92.04 46.01V46.02ZM27.39 40C25.82 38.43 23.92 38.32 22.34 39.02C21.75 39.28 21.21 39.66 20.75 40.11C20.3 40.56 19.92 41.1 19.66 41.7C18.96 43.28 19.07 45.18 20.64 46.75L38.27 64.38C39.2 65.31 40.43 65.78 41.66 65.78C42.89 65.78 44.12 65.31 45.05 64.38L89.28 19.95C90.9 18.33 91.02 16.36 90.3 14.72C90.03 14.11 89.64 13.55 89.17 13.08C88.7 12.61 88.14 12.22 87.53 11.95C85.89 11.23 83.93 11.35 82.3 12.97L41.43 54.04L27.39 40Z" fill="white"/>
</svg>
