<svg width="34" height="34" viewBox="0 0 34 34" fill="none" xmlns="http://www.w3.org/2000/svg">
<mask id="mask0_2041_71" style="mask-type:luminance" maskUnits="userSpaceOnUse" x="0" y="0" width="34" height="34">
<path d="M34 0H0V34H34V0Z" fill="white"/>
</mask>
<g mask="url(#mask0_2041_71)">
<path d="M5.36842 0H28.6316C31.6021 0 34 2.39789 34 5.36842V21.4737C34 24.4442 31.6021 26.8421 28.6316 26.8421H20.4179L13.7968 33.481C13.4747 33.8032 13.0274 34 12.5263 34C11.5421 34 10.7368 33.1947 10.7368 32.2105V26.8421H5.36842C2.39789 26.8421 0 24.4442 0 21.4737V5.36842C0 2.39789 2.39789 0 5.36842 0ZM28.6316 1.78947H5.36842C3.4 1.78947 1.78947 3.4 1.78947 5.36842V21.4737C1.78947 23.4421 3.4 25.0526 5.36842 25.0526H12.5263V32.2105L19.6842 25.0526H28.6316C30.6 25.0526 32.2105 23.4421 32.2105 21.4737V5.36842C32.2105 3.4 30.6 1.78947 28.6316 1.78947Z" fill="black"/>
</g>
</svg>
