<svg width="19" height="19" viewBox="0 0 19 19" fill="none" xmlns="http://www.w3.org/2000/svg">
<g clip-path="url(#clip0_2021_66)">
<path d="M3 0H16C17.66 0 19 1.34 19 3V12C19 13.66 17.66 15 16 15H11.41L7.71 18.71C7.53 18.89 7.28 19 7 19C6.45 19 6 18.55 6 18V15H3C1.34 15 0 13.66 0 12V3C0 1.34 1.34 0 3 0ZM16 1H3C1.9 1 1 1.9 1 3V12C1 13.1 1.9 14 3 14H7V18L11 14H16C17.1 14 18 13.1 18 12V3C18 1.9 17.1 1 16 1Z" fill="#064E3B"/>
</g>
<defs>
<clipPath id="clip0_2021_66">
<rect width="19" height="19" fill="white"/>
</clipPath>
</defs>
</svg>
