<svg width="96" height="72" viewBox="0 0 96 72" fill="none" xmlns="http://www.w3.org/2000/svg">
<path d="M96 10C96 8.104 95.436 6.352 94.52 4.84L62.968 38.736L94.444 67.296C95.413 65.752 95.997 63.952 95.997 62.004L96 10Z" fill="black"/>
<path d="M40.272 40.645C44.384 45.117 51.604 45.128 55.736 40.636L91.804 1.884C90.16 0.712 88.164 0 85.996 0H9.996C8.056 0 6.252 0.58 4.716 1.544L40.272 40.645Z" fill="black"/>
<path d="M60.252 41.66L58.672 43.351C55.848 46.424 52.057 48.12 48 48.12C43.944 48.12 40.152 46.42 37.32 43.344L35.784 41.656L4.612 70.4C6.172 71.404 8.012 72 10 72H86C88.12 72 90.084 71.328 91.704 70.195L60.252 41.66Z" fill="black"/>
<path d="M1.812 4.292C0.676 5.912 0 7.876 0 10V62C0 64.08 0.64 66.012 1.732 67.611L33.092 38.695L1.812 4.292Z" fill="black"/>
</svg>
