<svg width="60" height="63" viewBox="0 0 60 63" fill="none" xmlns="http://www.w3.org/2000/svg">
<path d="M37.109 53.6394C34.5882 55.0683 32.0753 56.4972 29.5545 57.9261C29.1967 58.1262 28.8388 58.3333 28.481 58.5334C29.2841 58.5334 30.0873 58.5334 30.8905 58.5334C28.306 57.0688 25.7216 55.597 23.1371 54.1324C22.8111 53.9466 22.485 53.768 22.1669 53.5823C21.5228 53.2107 20.8866 52.8249 20.2664 52.4248C19.9722 52.2391 19.6859 52.039 19.3996 51.8461C19.0258 51.5961 19.8688 52.1748 19.503 51.9176C19.4394 51.8747 19.3757 51.8318 19.3121 51.7818C19.1372 51.6604 18.9702 51.5389 18.8032 51.4103C17.6183 50.5458 16.4971 49.6171 15.4315 48.6311C14.8987 48.1381 14.3738 47.6237 13.8728 47.1022C13.6263 46.845 13.3878 46.5949 13.1492 46.3306C13.0379 46.2091 12.9265 46.0805 12.8152 45.9591C12.7516 45.8876 12.6959 45.8233 12.6323 45.7519C12.3778 45.4589 12.9822 46.1663 12.7198 45.8519C10.6602 43.4085 8.93456 40.7579 7.60655 37.9286C7.68607 38.1001 7.76559 38.2716 7.84511 38.443C6.4853 35.5281 5.55489 32.4702 5.07776 29.3481C5.10957 29.541 5.13343 29.7267 5.16524 29.9196C4.75968 27.1833 4.79944 24.4469 4.79944 21.6963C4.79944 18.5456 4.79944 15.3949 4.79944 12.237C4.79944 11.4439 4.79944 10.6509 4.79944 9.85786C4.00422 10.5723 3.20901 11.2868 2.41379 12.0012C11.1532 11.3654 19.662 9.20771 27.471 5.62831C28.6241 5.09962 29.7533 4.52806 30.8905 3.97079C30.0873 3.97079 29.2841 3.97079 28.481 3.97079C31.3914 5.40683 34.3258 6.75 37.4033 7.87169C41.3157 9.30773 45.3872 10.3866 49.5383 11.101C51.9875 11.5225 54.4766 11.8226 56.9656 12.0084C56.1704 11.2939 55.3752 10.5795 54.5799 9.86501C54.5799 11.9869 54.5799 14.1088 54.5799 16.2236C54.5799 19.0028 54.5799 21.782 54.5799 24.5684C54.5799 26.3617 54.4845 28.1407 54.2141 29.9196C54.2459 29.7267 54.2698 29.541 54.3016 29.3481C53.8245 32.4774 52.8941 35.5352 51.5343 38.443C51.6138 38.2716 51.6933 38.1001 51.7728 37.9286C50.5561 40.5221 49.0055 42.9869 47.1526 45.2589C47.0492 45.3875 46.9459 45.5161 46.8345 45.6376C46.7789 45.709 46.7153 45.7804 46.6596 45.8448C46.4369 46.1091 46.8107 45.6733 46.8186 45.659C46.5801 45.9591 46.3017 46.2448 46.0393 46.5235C45.5463 47.0522 45.0453 47.5737 44.5205 48.0738C43.439 49.1169 42.2939 50.0957 41.0851 51.0174C40.7511 51.2746 40.4092 51.5175 40.0672 51.7675C39.9877 51.8247 39.9082 51.8747 39.8287 51.9319C39.6855 52.0319 39.7651 51.9747 40.0752 51.7604C40.0116 51.8033 39.948 51.8461 39.8844 51.889C39.7253 51.9962 39.5663 52.1033 39.3993 52.2105C38.6518 52.7249 37.8884 53.1964 37.109 53.6394C36.0594 54.2395 35.5345 55.5756 36.2502 56.5687C36.9261 57.5189 38.3893 57.9833 39.5106 57.3403C44.1706 54.6896 48.1705 51.2746 51.407 47.2594C54.4607 43.4656 56.7191 39.1075 58.0073 34.5707C58.9695 31.1914 59.3433 27.7334 59.3433 24.254C59.3433 21.6463 59.3433 19.0386 59.3433 16.438C59.3433 14.2875 59.3671 12.1298 59.3433 9.97217C59.3433 9.93645 59.3433 9.90073 59.3433 9.86501C59.3433 8.63615 58.2459 7.81453 56.9576 7.72165C55.8682 7.64306 54.7787 7.5359 53.6893 7.4073C53.904 7.43587 54.1108 7.45731 54.3255 7.48589C48.6715 6.80001 43.1368 5.44256 37.8804 3.44924C38.0713 3.52068 38.2621 3.59213 38.453 3.66357C36.1071 2.77051 33.8487 1.73456 31.6141 0.627158C31.3755 0.505702 31.137 0.3771 30.8905 0.269933C30.0634 -0.101582 29.2364 -0.087293 28.4253 0.29851C28.2981 0.355666 28.1788 0.419967 28.0515 0.484268C27.2643 0.870071 26.485 1.26302 25.6977 1.63453C24.1391 2.37042 22.5407 3.042 20.9264 3.66357C21.1173 3.59213 21.3081 3.52068 21.499 3.44924C16.2426 5.44256 10.7079 6.80001 5.05391 7.48589C5.26861 7.45731 5.47537 7.43587 5.69008 7.4073C4.60063 7.5359 3.51119 7.64306 2.42174 7.72165C1.13349 7.81453 0.0360969 8.62901 0.0360969 9.86501C0.0360969 12.5799 0.0360969 15.2877 0.0360969 18.0026C0.0360969 20.8961 -0.0672812 23.8111 0.0758577 26.6975C0.393944 32.9275 2.38993 39.0575 5.91274 44.4301C9.34807 49.6599 14.175 54.0967 19.8847 57.3403C22.66 58.9192 25.4432 60.4981 28.2185 62.0699C28.306 62.1199 28.4014 62.1699 28.4889 62.2271C29.1807 62.6201 30.1986 62.6201 30.8984 62.2271C33.4192 60.7982 35.9321 59.3693 38.453 57.9404C38.8108 57.7404 39.1687 57.5332 39.5265 57.3331C40.5841 56.733 41.101 55.397 40.3853 54.4039C39.6935 53.4608 38.2383 52.9964 37.109 53.6394Z" fill="black"/>
<path d="M15.0417 30.2483C17.6023 32.5488 20.1708 34.8565 22.7314 37.157C23.0972 37.4857 23.463 37.8143 23.8288 38.143C24.7433 38.9646 26.286 38.9646 27.2005 38.143C29.1409 36.3997 31.0812 34.6564 33.0215 32.9132C36.0911 30.1554 39.1526 27.4048 42.2222 24.647C42.922 24.0183 43.6217 23.3896 44.3215 22.7608C45.2042 21.9678 45.2678 20.5103 44.3215 19.7316C43.3673 18.9457 41.8882 18.8814 40.9498 19.7316C39.0095 21.4748 37.0692 23.2181 35.1288 24.9613C32.0593 27.7191 28.9977 30.4698 25.9282 33.2275C25.2284 33.8563 24.5286 34.485 23.8288 35.1137C24.9501 35.1137 26.0793 35.1137 27.2005 35.1137C24.6399 32.8132 22.0714 30.5055 19.5108 28.205C19.145 27.8763 18.7792 27.5477 18.4134 27.219C17.5307 26.426 15.9085 26.3688 15.0417 27.219C14.167 28.0692 14.1033 29.3981 15.0417 30.2483Z" fill="black"/>
</svg>
