<svg width="65" height="96" viewBox="0 0 65 96" fill="none" xmlns="http://www.w3.org/2000/svg">
<path d="M25.9973 0C24.3405 0 22.9973 1.3432 22.9973 3V15C22.9973 16.6568 24.3405 18 25.9973 18C27.6542 18 28.9973 16.6568 28.9973 15V3C28.9973 1.3432 27.6542 0 25.9973 0ZM2.74726 13C1.78866 13.038 0.913061 13.5289 0.403461 14.5C-0.424839 15.9349 0.0623604 17.7653 1.49726 18.5938L11.9035 24.5938C13.3383 25.4221 15.1689 24.9349 15.9973 23.5C16.8257 22.0652 16.3383 20.235 14.9035 19.4062L4.49726 13.4062C3.93236 13.1256 3.32246 12.977 2.74726 13ZM49.1535 13C48.6279 12.99 48.0729 13.1341 47.4973 13.4062L37.0911 19.4062C35.6563 20.235 35.1689 22.0652 35.9973 23.5C36.8257 24.9349 38.6563 25.4221 40.0911 24.5938L50.4973 18.5938C51.9322 17.7653 52.4193 15.9349 51.5911 14.5C50.8348 13.4504 50.03 13.0115 49.1535 13ZM25.9973 20C21.0633 20 16.9973 24.0659 16.9973 29V51.3126C15.511 49.3244 13.894 47.804 11.9973 47.2812C9.39696 46.5647 7.06726 47.4966 5.49726 48.4062C3.60076 49.9128 1.94416 51.0847 1.27846 53.5001C0.653261 55.7786 1.11486 58.2286 2.21606 61.0626C7.48756 73.693 13.8737 85.9378 21.7473 94.9689C22.3053 95.6105 23.1469 95.9962 23.9973 96.0001H50.9973C51.6339 96.0001 52.2681 95.7865 52.7785 95.4063C55.9104 93.0863 58.2497 89.3256 60.2161 84.9063C62.1825 80.4871 63.6646 75.3682 64.4348 70.3751C65.205 65.382 65.2626 60.4442 64.1223 56.3751C62.9627 52.2373 59.9037 48.5342 55.3411 48.0001C54.5685 47.9781 53.7359 48.1042 53.0598 48.1876C52.4718 47.0573 51.6813 46.1497 50.8098 45.5312C49.0974 44.3161 47.4064 43.9757 45.9348 44C44.8789 44.018 43.9197 44.3765 42.9973 44.875C42.628 44.4343 42.3305 43.8725 41.9035 43.5625C40.1961 42.3225 38.4416 42 36.9973 42C36.3136 42 35.6549 42.1037 34.9973 42.25V29C34.9973 24.0659 30.9313 20 25.9973 20ZM25.9973 26C27.7111 26 28.9973 27.2861 28.9973 29V48.0001C28.9973 49.3545 30.0195 50.6415 31.3411 50.9376C32.6627 51.2337 34.143 50.5086 34.7161 49.2812C35.8073 47.8656 36.9418 47.8977 38.3723 48.4062C38.7302 48.6662 38.9973 48.8156 38.9973 50.0001C38.9973 51.3421 40.0038 52.629 41.3098 52.9376C42.6159 53.2462 44.088 52.5458 44.6848 51.3439C45.4649 49.7245 45.9733 49.9221 47.3411 50.4376C47.7513 50.7287 47.9973 50.8727 47.9973 52.0001C48.0073 53.1539 48.7517 54.2588 49.8098 54.7189C50.8679 55.1789 52.1794 54.9687 53.0285 54.1876C53.0615 54.2536 54.3641 53.8321 54.8411 54.0001C56.7 54.2815 57.6093 55.3421 58.3723 58.0312C59.1628 60.8177 59.2128 65.0329 58.5285 69.4689C57.8443 73.9048 56.4402 78.5941 54.7161 82.4689C53.1512 85.9855 51.2677 88.612 49.7161 90.0001H25.4973C19.9042 82.4257 6.99966 62.0514 7.05976 55.1251C7.87066 53.7919 9.13376 52.927 10.4035 53.0626C11.9947 53.8656 12.3899 54.6899 13.3411 56.4062L17.3098 64.3439C17.9067 65.5458 19.3787 66.2462 20.6848 65.9376C21.9908 65.629 23.0015 64.3421 22.9973 63.0001V29C22.9973 27.2861 24.2834 26 25.9973 26Z" fill="black"/>
</svg>
