<svg width="33" height="45" viewBox="0 0 33 45" fill="none" xmlns="http://www.w3.org/2000/svg">
<path d="M16.2697 6.65824e-06C11.9533 -0.00389934 7.81271 1.71091 4.76171 4.76171C1.71091 7.81251 -0.00389336 11.9531 6.63784e-06 16.2697C6.63784e-06 27.1287 10.68 39.8717 14.73 44.2697C15.1245 44.7033 15.6831 44.9533 16.2691 44.9533C16.8551 44.9533 17.4136 44.7033 17.8082 44.2697C21.859 39.8205 32.5382 27.0787 32.5382 16.2697C32.5421 11.9533 30.8273 7.81271 27.7765 4.76171C24.7257 1.71091 20.5851 -0.00389334 16.2685 6.65824e-06H16.2697ZM16.2697 24.621C12.8908 24.621 9.8478 22.5858 8.5549 19.4648C7.2619 16.3437 7.97679 12.7539 10.3635 10.3671C12.7541 7.97651 16.344 7.26161 19.4651 8.55461C22.5862 9.84761 24.6213 12.8944 24.6213 16.2694C24.6213 20.8827 20.883 24.621 16.2697 24.621Z" fill="#AF0000"/>
</svg>
