<svg width="95" height="71" viewBox="0 0 95 71" fill="none" xmlns="http://www.w3.org/2000/svg">
<path d="M94.6348 36.2C92.6348 29.2 86.2348 24.3 78.9348 24.3H65.3348L46.1348 0.9C45.6348 0.3 44.9348 0 44.2348 0H31.3348C30.5348 0 29.7348 0.399999 29.2348 1.1C28.7348 1.8 28.7348 2.7 29.0348 3.4L38.2348 24.2H20.8348L14.8348 16.5C14.3348 15.9 13.6348 15.6 12.9348 15.5L2.43485 15.6C1.63485 15.6 0.934847 15.9 0.534847 16.5C0.0348469 17.1 -0.0651531 17.9 0.0348469 18.6L4.23485 35.4C5.83485 41.7 11.4348 46.1 17.9348 46.1H38.3349L29.1348 66.9C28.8348 67.7 28.8348 68.5 29.3348 69.2C29.8348 69.9 30.5348 70.3 31.4348 70.3H44.3349C45.0349 70.3 45.7348 70 46.2348 69.4L65.5348 46H87.2348C89.7348 46 91.9348 44.9 93.4348 42.9C94.8348 41.1 95.3348 38.6 94.6348 36.2ZM35.1348 4.9H43.0348L58.9348 24.2H43.6348L35.1348 4.9ZM89.4348 40C88.8348 40.7 88.0348 41.2 87.1348 41.2H64.2348C63.5348 41.2 62.8349 41.5 62.3349 42.1L43.0348 65.5H35.1348L44.3349 44.7C44.6349 43.9 44.6348 43.1 44.1348 42.4C43.6348 41.7 42.9348 41.3 42.0348 41.3H17.8348C13.6348 41.3 9.93485 38.4 8.93485 34.3L5.53485 20.5H11.6348L17.6348 28.2C18.1348 28.8 18.8348 29.2 19.5348 29.2H78.8348C83.9348 29.2 88.4348 32.6 89.8348 37.5C90.1348 38.4 89.9348 39.3 89.4348 40Z" fill="black"/>
</svg>
