<svg width="512" height="513" viewBox="0 0 512 513" fill="none" xmlns="http://www.w3.org/2000/svg">
<path d="M118.61 287.49C136.39 267.3 154.67 246.11 166.38 232.41C147.76 220.23 127.88 208.87 108.52 197.82C83.76 183.68 58.17 169.07 34.71 152.5C30.7753 149.719 27.4795 146.131 25.0428 141.975C22.606 137.819 21.0845 133.191 20.58 128.4C20.0717 123.821 20.5466 119.187 21.9727 114.807C23.3989 110.426 25.7435 106.401 28.85 103C35.58 95.6996 42.45 88.3596 49.28 81.1596C65 64.5696 89.2 59.2396 114 66.8696C122.16 69.3762 130.347 71.8796 138.56 74.3796C185.32 88.6496 233.56 103.38 278.85 120.51L291.99 107.51C315.08 84.6796 346.72 53.4096 373.51 27.0796C403.6 -2.48044 460.84 -11.9204 492.4 19.5896C507.4 34.5896 514.13 56.4396 511.4 81.1396C509 103 499.32 123.87 485 138.49C458.72 165.23 427.5 196.82 404.7 219.88L391.59 233.15C409.34 280.07 424.59 330.09 439.31 378.59L445.18 398C452.77 422.86 447.44 447.06 430.9 462.74C423.71 469.57 416.37 476.44 409.09 483.16C405.682 486.272 401.648 488.62 397.259 490.048C392.87 491.476 388.227 491.951 383.64 491.44C378.849 490.935 374.22 489.413 370.064 486.977C365.908 484.54 362.32 481.244 359.54 477.31C342.98 453.85 328.36 428.25 314.23 403.5C303.17 384.14 291.82 364.26 279.63 345.63C265.93 357.34 244.74 375.63 224.55 393.41L241.32 430.35C244.19 437.646 244.756 445.647 242.943 453.275C241.13 460.903 237.025 467.794 231.18 473.02L225.78 477.88C216.21 486.5 205.37 496.26 195.36 505.12C190.371 509.565 183.922 512.021 177.24 512.02C175.563 512.019 173.89 511.869 172.24 511.57C168.147 510.833 164.277 509.171 160.925 506.71C157.573 504.249 154.828 501.054 152.9 497.37C135.26 463.87 122.49 441.71 101.7 413.53C100.782 412.29 99.6827 411.194 98.44 410.28C69.2 388.71 46.22 376.01 14.44 359.1C10.7821 357.15 7.61346 354.397 5.17204 351.047C2.73062 347.697 1.07985 343.837 0.343683 339.758C-0.392482 335.679 -0.194912 331.486 0.921559 327.494C2.03803 323.502 4.04438 319.815 6.78997 316.71C15.7 306.65 25.52 295.71 34.18 286.13L38.95 280.83C44.1729 274.983 51.062 270.878 58.6895 269.067C66.317 267.255 74.3163 267.825 81.61 270.7L118.61 287.49ZM44.19 331.93C71 346.4 93.69 359.58 121 379.74C125.305 382.907 129.111 386.703 132.29 391C151.92 417.6 164.72 438.94 180.2 467.77C187.05 461.65 193.99 455.4 200.35 449.67L205.77 444.8C205.843 444.75 205.899 444.679 205.929 444.597C205.96 444.514 205.963 444.424 205.94 444.34C202.06 436.04 199.27 429.81 196.57 423.77C193.41 416.7 190.43 410.03 185.84 400.39C185.079 398.781 184.543 397.075 184.25 395.32C183.47 390.849 183.841 386.254 185.33 381.967C186.819 377.68 189.376 373.844 192.76 370.82C222.36 344.62 259.28 312.94 268.71 305.11C271.047 303.177 273.758 301.747 276.672 300.909C279.587 300.071 282.643 299.843 285.65 300.24C288.708 300.648 291.649 301.681 294.29 303.276C296.931 304.871 299.215 306.993 301 309.51C318 333.51 332.86 359.51 347.23 384.68C360.64 408.18 373.36 430.45 387.67 451.24C393.38 445.94 399.11 440.56 404.75 435.24C413.18 427.24 410.42 414.35 408.84 409.17C406.84 402.703 404.86 396.206 402.9 389.68C387.15 337.88 370.9 284.32 351.71 235.51L347.2 224L355.88 215.21C361.32 209.69 368.88 202.09 377.63 193.21C400.41 170.21 431.63 138.6 457.85 111.9C477 92.3496 478.14 58.9996 465.57 46.4696C453 33.9396 419.7 34.9996 400.19 54.1996C373.43 80.4896 341.82 111.73 318.74 134.55L296.86 156.17L288.07 164.84L276.58 160.33C229.35 141.81 177.58 126.01 127.51 110.73L102.88 103.2C97.72 101.61 84.88 98.8396 76.88 107.29C71.52 112.93 66.14 118.66 60.88 124.38C81.66 138.68 103.94 151.38 127.43 164.82C152.59 179.19 178.61 194.05 202.61 211.05C205.125 212.833 207.247 215.116 208.841 217.755C210.436 220.394 211.471 223.333 211.88 226.39C212.272 229.396 212.042 232.451 211.204 235.365C210.367 238.279 208.939 240.99 207.01 243.33C199.19 252.76 167.51 289.67 141.3 319.28C138.278 322.666 134.442 325.225 130.155 326.715C125.867 328.204 121.27 328.574 116.8 327.79C115.043 327.504 113.336 326.968 111.73 326.2C102.09 321.62 95.41 318.63 88.35 315.48C82.35 312.78 76.07 309.99 67.78 306.1C67.6951 306.078 67.6056 306.082 67.5234 306.113C67.4411 306.143 67.3702 306.198 67.32 306.27L62.54 311.59C56.68 318 50.38 325 44.19 331.93Z" fill="#064E3B"/>
</svg>
